<svg width="40" height="40" viewBox="0 0 40 40" fill="none" xmlns="http://www.w3.org/2000/svg">
<path d="M8.66699 24.8486C8.66699 25.6255 9.26302 26.1364 10.2741 26.1364H14.7657C14.8508 28.1906 16.458 29.9893 18.7038 29.9893C20.9602 29.9893 22.5673 28.2012 22.6524 26.1364H27.144C28.1444 26.1364 28.7512 25.6255 28.7512 24.8486C28.7512 23.7842 27.6655 22.8263 26.7502 21.879C26.0477 21.1447 25.8561 19.6333 25.7709 18.4092C25.6965 14.2158 24.6109 11.5123 21.7797 10.4906C21.4178 9.09627 20.279 8 18.7038 8C17.1392 8 15.9897 9.09627 15.6384 10.4906C12.8073 11.5123 11.7217 14.2158 11.6472 18.4092C11.562 19.6333 11.3704 21.1447 10.668 21.879C9.74197 22.8263 8.66699 23.7842 8.66699 24.8486ZM10.7318 24.5292V24.4015C10.9234 24.0929 11.562 23.4649 12.1155 22.8476C12.8818 21.9961 13.2437 20.6231 13.3395 18.5477C13.4246 13.8965 14.8082 12.417 16.6283 11.9168C16.8944 11.8529 17.0434 11.7252 17.054 11.4485C17.0859 10.3415 17.7246 9.56459 18.7038 9.56459C19.6936 9.56459 20.3215 10.3415 20.3641 11.4485C20.3747 11.7252 20.5132 11.8529 20.7792 11.9168C22.6099 12.417 23.9935 13.8965 24.0787 18.5477C24.1744 20.6231 24.5364 21.9961 25.292 22.8476C25.8561 23.4649 26.4841 24.0929 26.6756 24.4015V24.5292H10.7318ZM16.426 26.1364H20.9921C20.907 27.5839 19.9916 28.4886 18.7038 28.4886C17.4265 28.4886 16.5006 27.5839 16.426 26.1364Z" fill="black" fill-opacity="0.5"/>
</svg>
