<svg width="39" height="46" viewBox="0 0 39 46" fill="none" xmlns="http://www.w3.org/2000/svg">
<g id="brain.head.profile" clip-path="url(#clip0_380_762)">
<g id="Group">
<path id="Vector" d="M22.1928 45.859C29.2697 45.859 33.4947 43.3593 33.4947 39.2047V29.54C36.5402 26.9345 38.336 22.6919 38.336 18.0091C38.336 7.18249 31.3118 -6.10352e-05 20.8021 -6.10352e-05C10.3451 -6.10352e-05 3.37381 7.04165 3.37381 17.6043C3.37381 18.2555 3.39141 18.7837 3.44423 19.2766L0.997236 23.6601C0.363482 24.8043 0.064209 25.8783 0.064209 26.8816C0.064209 28.8357 1.29651 30.4026 3.37381 30.8603V34.8388C3.37381 38.1659 5.67997 39.7681 8.70792 39.4511L12.2992 39.0638L11.0493 37.7435V39.2047C11.0493 43.3593 15.2039 45.859 22.1928 45.859ZM22.1928 43.0248C16.9114 43.0248 13.7251 41.3523 13.7251 38.6414V36.4056C13.7251 36.1591 13.5843 36.0535 13.3378 36.0711L8.33822 36.6344C6.98269 36.7753 6.2081 36.1767 6.2081 34.6276V28.783C6.2081 28.6069 6.06726 28.4836 5.85602 28.4836H4.923C3.65547 28.4836 2.93371 27.85 2.93371 26.8289C2.93371 26.3183 3.10974 25.7022 3.46184 25.0684L6.36654 19.8576C6.24331 19.0829 6.19049 18.3084 6.19049 17.569C6.19049 8.71406 12.0175 2.83423 20.8021 2.83423C29.6042 2.83423 35.5016 8.8901 35.5016 18.0091C35.5016 22.3925 33.6708 26.1951 30.6605 28.1316V38.6414C30.6605 41.3523 27.4741 43.0248 22.1928 43.0248ZM9.0776 14.6115C9.0776 18.0091 11.4366 20.2976 14.9222 20.2976C18.3551 20.2976 20.6965 18.2555 20.6965 15.1925C20.6965 13.9249 20.2563 12.8511 19.4465 12.1821C19.0945 11.8828 18.848 11.7772 18.5134 11.7772C18.003 11.7772 17.6157 12.1117 17.6157 12.6046C17.6157 13.1503 17.9678 13.3264 18.3198 13.6609C18.6719 14.0129 18.8831 14.5235 18.8831 15.1572C18.8831 17.1466 17.3164 18.4669 14.9398 18.4669C12.5104 18.4669 10.9084 16.9352 10.9084 14.6115C10.9084 13.2031 11.6478 11.9004 12.8625 11.2139L11.9471 9.57667C10.2043 10.5977 9.0776 12.5518 9.0776 14.6115ZM11.507 9.89355C11.507 12.0765 13.0562 13.5552 15.3272 13.5552C15.8025 13.5552 16.2425 13.1327 16.2425 12.6398C16.2425 12.1469 15.8201 11.7244 15.3272 11.7244C14.13 11.7244 13.3378 11.0026 13.3378 9.89355C13.3378 8.73166 14.3061 7.88666 15.644 7.88666C16.3658 7.88666 17.1052 8.15072 17.7037 8.60843L18.7775 7.11208C17.8622 6.4255 16.7883 6.05581 15.6616 6.05581C13.3026 6.05581 11.507 7.693 11.507 9.89355ZM16.3305 9.64709C16.313 10.1928 16.7002 10.6153 17.246 10.6153C17.7742 10.6153 18.1261 10.2632 18.1439 9.7175C18.2319 8.0627 19.4113 6.91842 21.0486 6.90082C22.0168 6.90082 22.8794 7.41134 23.2139 8.22114C23.3547 8.48521 23.6363 8.48521 24.0412 8.37957C24.2526 8.30916 24.4989 8.29155 24.7454 8.29155C26.4001 8.29155 27.6853 9.57667 27.6853 11.2843C27.6853 15.4213 21.6471 14.7171 21.6471 19.1182C21.6471 21.1075 23.2491 22.5158 25.5024 22.5158C25.6609 22.5158 25.8192 22.5158 26.0129 22.5158C26.3123 24.3115 27.4741 25.5437 28.9176 25.5437C30.9949 25.5437 32.4737 23.1672 32.4737 19.8752C32.4737 18.5901 32.3856 17.7451 32.3153 16.9352L30.4493 17.4634C30.5373 18.2555 30.6429 18.9422 30.6429 19.8399C30.6429 22.0052 29.8682 23.713 28.9176 23.713C28.0902 23.713 27.5445 22.6919 27.5445 21.2131C27.5445 20.9666 27.3685 20.8434 27.1395 20.8434C26.8579 20.8434 26.5235 20.861 26.3123 20.861C24.4286 20.861 23.4956 20.2625 23.4956 19.1005C23.4956 15.8966 29.5338 16.812 29.5338 11.2843C29.5338 8.53801 27.5268 6.4431 24.9215 6.4431C24.7279 6.4431 24.4989 6.46071 24.2701 6.51353C23.4956 5.6157 22.316 5.08758 21.0486 5.08758C18.3902 5.08758 16.4361 6.95364 16.3305 9.64709ZM27.0339 18.5196C27.0339 19.0125 27.4036 19.3999 27.9142 19.4526C31.1182 19.6463 33.3011 17.7275 33.3011 14.6995C33.3011 12.1117 31.4174 10.1576 28.6359 9.89355L28.3542 11.742C30.2203 11.654 31.4702 12.8511 31.4702 14.6995C31.4702 16.6008 30.0796 17.7802 27.9494 17.6219C27.4741 17.5866 27.0339 18.0267 27.0339 18.5196ZM22.6328 19.5231C22.0872 19.7343 21.383 19.8576 20.7316 19.8576C19.0945 19.8576 17.5452 19.1534 17.1228 18.2028L15.5911 19.4702C16.6122 20.861 18.4783 21.6884 20.5909 21.6884C21.4534 21.6884 22.3865 21.5477 23.2315 21.2658L22.6328 19.5231ZM19.3409 13.1855L19.9395 14.946C22.3336 14.5411 23.6012 13.0975 23.6012 10.7209C23.6012 10.2456 23.161 9.80552 22.6681 9.80552C22.1753 9.80552 21.7703 10.228 21.7703 10.7386C21.7703 12.2877 21.0309 13.0095 19.3409 13.1855Z" fill="#776EA5"/>
</g>
</g>
<defs>
<clipPath id="clip0_380_762">
<rect width="38.2718" height="46" fill="white" transform="translate(0.064209 -6.10352e-05)"/>
</clipPath>
</defs>
</svg>
