<svg width="24" height="24" viewBox="0 0 24 24" fill="none" xmlns="http://www.w3.org/2000/svg">
<g clip-path="url(#clip0_380_1104)">
<path d="M13.2714 23.4078C16.7325 23.4078 18.7988 22.1852 18.7988 20.1534V15.4266C20.2882 14.1524 21.1665 12.0775 21.1665 9.78728C21.1665 4.49231 17.7312 0.979553 12.5912 0.979553C7.47704 0.979553 4.06759 4.42343 4.06759 9.58928C4.06759 9.90777 4.0762 10.1661 4.10204 10.4071L2.90529 12.551C2.59534 13.1106 2.44897 13.6358 2.44897 14.1265C2.44897 15.0822 3.05165 15.8485 4.06759 16.0724V18.0181C4.06759 19.6453 5.19547 20.4289 6.67634 20.2739L8.43271 20.0845L7.82142 19.4387V20.1534C7.82142 22.1852 9.85329 23.4078 13.2714 23.4078ZM13.2714 22.0216C10.6884 22.0216 9.1301 21.2037 9.1301 19.8779V18.7844C9.1301 18.6639 9.06122 18.6122 8.94069 18.6208L6.49553 18.8963C5.83259 18.9652 5.45375 18.6725 5.45375 17.9148V15.0564C5.45375 14.9703 5.38488 14.91 5.28156 14.91H4.82525C4.20535 14.91 3.85236 14.6001 3.85236 14.1007C3.85236 13.851 3.93845 13.5497 4.11065 13.2398L5.53124 10.6913C5.47098 10.3124 5.44514 9.93363 5.44514 9.57202C5.44514 5.24135 8.29496 2.36571 12.5912 2.36571C16.8961 2.36571 19.7803 5.32745 19.7803 9.78728C19.7803 11.931 18.8849 13.7908 17.4126 14.7379V19.8779C17.4126 21.2037 15.8543 22.0216 13.2714 22.0216ZM6.85714 8.1256C6.85714 9.78728 8.01084 10.9065 9.71555 10.9065C11.3945 10.9065 12.5396 9.90777 12.5396 8.40973C12.5396 7.78982 12.3243 7.26463 11.9282 6.93746C11.7561 6.7911 11.6355 6.73944 11.4719 6.73944C11.2222 6.73944 11.0328 6.90302 11.0328 7.14409C11.0328 7.411 11.2051 7.49709 11.3772 7.66068C11.5494 7.83287 11.6527 8.08255 11.6527 8.39247C11.6527 9.36542 10.8865 10.0111 9.72416 10.0111C8.53603 10.0111 7.75255 9.26205 7.75255 8.1256C7.75255 7.43682 8.11416 6.79971 8.70822 6.46393L8.26052 5.66323C7.40816 6.16259 6.85714 7.11827 6.85714 8.1256ZM8.04528 5.8182C8.04528 6.8858 8.80293 7.60902 9.91361 7.60902C10.1461 7.60902 10.3613 7.40239 10.3613 7.16131C10.3613 6.92024 10.1547 6.71361 9.91361 6.71361C9.32812 6.71361 8.94069 6.36061 8.94069 5.8182C8.94069 5.24996 9.41422 4.8367 10.0686 4.8367C10.4216 4.8367 10.7832 4.96584 11.0759 5.18969L11.6011 4.45787C11.1534 4.12209 10.6282 3.94129 10.0772 3.94129C8.92346 3.94129 8.04528 4.74199 8.04528 5.8182ZM10.4043 5.69767C10.3957 5.96457 10.5851 6.1712 10.852 6.1712C11.1104 6.1712 11.2825 5.999 11.2912 5.7321C11.3342 4.92279 11.911 4.36316 12.7118 4.35455C13.1853 4.35455 13.6071 4.60423 13.7708 5.00028C13.8396 5.12943 13.9774 5.12943 14.1754 5.07776C14.2787 5.04333 14.3992 5.03472 14.5198 5.03472C15.329 5.03472 15.9576 5.66323 15.9576 6.49837C15.9576 8.52163 13.0045 8.17726 13.0045 10.3297C13.0045 11.3026 13.7879 11.9914 14.89 11.9914C14.9675 11.9914 15.0449 11.9914 15.1396 11.9914C15.2861 12.8695 15.8543 13.4722 16.5602 13.4722C17.5762 13.4722 18.2994 12.3099 18.2994 10.6999C18.2994 10.0714 18.2564 9.65812 18.222 9.26205L17.3093 9.52037C17.3524 9.90777 17.404 10.2436 17.404 10.6827C17.404 11.7416 17.0252 12.5768 16.5602 12.5768C16.1556 12.5768 15.8887 12.0775 15.8887 11.3542C15.8887 11.2337 15.8026 11.1734 15.6907 11.1734C15.5529 11.1734 15.3894 11.182 15.2861 11.182C14.3648 11.182 13.9085 10.8893 13.9085 10.321C13.9085 8.75408 16.8616 9.20181 16.8616 6.49837C16.8616 5.15525 15.8801 4.1307 14.6059 4.1307C14.5112 4.1307 14.3992 4.13931 14.2873 4.16514C13.9085 3.72604 13.3316 3.46776 12.7118 3.46776C11.4117 3.46776 10.456 4.38038 10.4043 5.69767ZM15.639 10.0369C15.639 10.278 15.8198 10.4675 16.0695 10.4933C17.6365 10.588 18.7041 9.64953 18.7041 8.16865C18.7041 6.90302 17.7828 5.94735 16.4225 5.8182L16.2847 6.72222C17.1974 6.67917 17.8086 7.26463 17.8086 8.16865C17.8086 9.09851 17.1285 9.67532 16.0867 9.59788C15.8543 9.58062 15.639 9.79588 15.639 10.0369ZM13.4866 10.5277C13.2197 10.631 12.8753 10.6913 12.5567 10.6913C11.7561 10.6913 10.9984 10.3469 10.7918 9.88199L10.0427 10.5018C10.5421 11.182 11.4547 11.5867 12.4879 11.5867C12.9098 11.5867 13.3661 11.5179 13.7794 11.38L13.4866 10.5277ZM11.8766 7.42821L12.1693 8.28918C13.3402 8.09116 13.9602 7.38517 13.9602 6.22286C13.9602 5.99039 13.7449 5.77515 13.5038 5.77515C13.2628 5.77515 13.0647 5.98178 13.0647 6.23147C13.0647 6.98912 12.7031 7.34212 11.8766 7.42821Z" fill="white"/>
</g>
<defs>
<clipPath id="clip0_380_1104">
<rect width="18.7175" height="22.4971" fill="white" transform="translate(2.44897 0.979553)"/>
</clipPath>
</defs>
</svg>
