<svg width="16" height="23" viewBox="0 0 16 23" fill="none" xmlns="http://www.w3.org/2000/svg">
<g id="list.clipboard" clip-path="url(#clip0_405_68)">
<g id="Group">
<path id="Vector" d="M4.09695 10.1575H11.6907C11.9835 10.1575 12.2331 9.91644 12.2331 9.62367C12.2331 9.33097 11.9835 9.08124 11.6907 9.08124H4.09695C3.80422 9.08124 3.55454 9.33097 3.55454 9.62367C3.55454 9.91644 3.80422 10.1575 4.09695 10.1575ZM4.09695 13.2139H11.6907C11.992 13.2139 12.2331 12.9728 12.2331 12.6715C12.2331 12.3788 11.992 12.1463 11.6907 12.1463H4.09695C3.79561 12.1463 3.55454 12.3788 3.55454 12.6715C3.55454 12.9728 3.79561 13.2139 4.09695 13.2139ZM4.09695 16.434H7.91965C8.21242 16.434 8.45347 16.1929 8.45347 15.9002C8.45347 15.6075 8.22101 15.3663 7.91965 15.3663H4.09695C3.79561 15.3663 3.55454 15.6075 3.55454 15.9002C3.55454 16.1929 3.80422 16.434 4.09695 16.434ZM3.32208 21.8408H12.4656C14.2478 21.8408 15.1346 20.9454 15.1346 19.1374V6.0851C15.1346 4.32012 14.2822 3.38166 12.5603 3.38166H12.3537C12.3623 3.45053 12.3623 3.52802 12.3623 3.5969V4.37177C12.3623 4.50953 12.3537 4.64728 12.3278 4.76782H12.5345C13.3437 4.76782 13.7484 5.29301 13.7484 6.10232V19.1202C13.7484 19.9812 13.2921 20.4547 12.3967 20.4547H3.39096C2.49555 20.4547 2.03924 19.9812 2.03924 19.1202V6.10232C2.03924 5.29301 2.44389 4.76782 3.2532 4.76782H3.45983C3.43401 4.64728 3.4254 4.50953 3.4254 4.37177V3.5969C3.4254 3.52802 3.4254 3.45053 3.43401 3.38166H3.22738C1.50544 3.38166 0.653076 4.32012 0.653076 6.0851V19.1374C0.653076 20.9454 1.53987 21.8408 3.32208 21.8408ZM5.23344 5.35327H10.5543C11.0535 5.35327 11.3549 5.03472 11.3549 4.50092V3.5969C11.3549 3.0631 11.0535 2.74454 10.5543 2.74454H9.7621C9.70186 1.77164 8.89252 0.979553 7.89383 0.979553C6.8951 0.979553 6.08579 1.77164 6.02553 2.74454H5.23344C4.73407 2.74454 4.43273 3.0631 4.43273 3.5969V4.50092C4.43273 5.03472 4.73407 5.35327 5.23344 5.35327ZM7.89383 3.56246C7.48056 3.56246 7.14479 3.21808 7.14479 2.81342C7.14479 2.39155 7.48056 2.05576 7.89383 2.05576C8.30712 2.05576 8.64287 2.39155 8.64287 2.81342C8.64287 3.21808 8.30712 3.56246 7.89383 3.56246Z" fill="white"/>
</g>
</g>
<defs>
<clipPath id="clip0_405_68">
<rect width="14.4815" height="21.86" fill="white" transform="translate(0.653076 0.979553)"/>
</clipPath>
</defs>
</svg>
