<svg width="40" height="40" viewBox="0 0 40 40" fill="none" xmlns="http://www.w3.org/2000/svg">
<g opacity="0.5">
<path d="M27.4865 22.9722C24.4461 22.9722 21.9727 25.4456 21.9727 28.486C21.9727 31.5263 24.4461 33.9998 27.4865 33.9998C30.5268 33.9998 33.0003 31.5263 33.0003 28.486C33.0003 25.4456 30.5268 22.9722 27.4865 22.9722ZM27.4865 32.8975C25.0541 32.8975 23.0749 30.9185 23.0749 28.486C23.0749 26.0534 25.054 24.0744 27.4865 24.0744C29.9189 24.0744 31.898 26.0535 31.898 28.486C31.898 30.9184 29.9189 32.8975 27.4865 32.8975Z" fill="black" stroke="black" stroke-width="0.4"/>
<path d="M28.0292 28.3266C28.0337 28.2984 28.0379 28.2703 28.0379 28.2408V25.8374C28.0379 25.5331 27.7911 25.2863 27.4868 25.2863C27.1825 25.2863 26.9357 25.5331 26.9357 25.8374V28.2411C26.9357 28.288 26.9298 28.8215 27.1029 28.9766L28.8083 30.5054C28.9135 30.5998 29.045 30.6461 29.176 30.6461C29.3271 30.6461 29.4777 30.5843 29.5866 30.4629C29.7898 30.2362 29.7708 29.8879 29.5442 29.6847L28.0292 28.3266Z" fill="black"/>
<circle cx="15" cy="21.2002" r="1" fill="black"/>
<circle cx="20" cy="21.2002" r="1" fill="black"/>
<circle cx="25" cy="21.2002" r="1" fill="black"/>
<circle cx="15" cy="25.2002" r="1" fill="black"/>
<circle cx="20" cy="25.2002" r="1" fill="black"/>
<path fill-rule="evenodd" clip-rule="evenodd" d="M24.9682 11.6135H26.2422C28.3016 11.6135 30 13.2909 30 15.3715V22.4982C29.4789 22.2809 28.9235 22.1294 28.3441 22.0543V18.0891H11.635V26.3906C11.635 27.5584 12.5904 28.5137 13.7581 28.5137H21C21.0012 29.0861 21.0764 29.6412 21.2165 30.1698H13.758C11.6985 30.1698 10 28.4925 10 26.4118V15.3715C10 13.2907 11.6774 11.6135 13.758 11.6135H15.0319V10.828C15.0319 10.3609 15.3929 10 15.86 10C16.3271 10 16.688 10.3821 16.688 10.828V11.6135H23.3122V10.828C23.3122 10.3609 23.6731 10 24.1402 10C24.6073 10 24.9682 10.3821 24.9682 10.828V11.6135ZM15.0321 13.2484H13.7581C12.5904 13.2484 11.6564 14.2038 11.6564 15.3715V16.4543H28.3443V15.3715C28.3443 14.2038 27.4101 13.2484 26.2423 13.2484H24.9684V14.0339C24.9684 14.501 24.6074 14.8619 24.1403 14.8619C23.6732 14.8619 23.3123 14.4799 23.3123 14.0339V13.2484H16.6881V14.0339C16.6881 14.501 16.3272 14.8619 15.8601 14.8619C15.393 14.8619 15.0321 14.4799 15.0321 14.0339V13.2484Z" fill="black"/>
</g>
</svg>
