<svg width="40" height="40" viewBox="0 0 40 40" fill="none" xmlns="http://www.w3.org/2000/svg">
<g clip-path="url(#clip0_43_502)">
<path d="M6 28.1207C6 28.6192 6.41176 29.0202 6.89938 29.0202H33.1007C33.5992 29.0202 34 28.6192 34 28.1207C34 27.6224 33.5992 27.2214 33.1007 27.2214H32.5155V12.6146C32.5155 11.6502 31.8545 11 30.8468 11H9.12075C8.12385 11 7.45201 11.6502 7.45201 12.6146V27.2214H6.89938C6.41176 27.2214 6 27.6224 6 28.1207ZM9.20744 19.3003V13.048C9.20744 12.8746 9.3158 12.7446 9.47833 12.7446H19.274V19.3003H9.20744ZM20.6935 19.3003V12.7446H30.5C30.6626 12.7446 30.771 12.8746 30.771 13.048V19.3003H20.6935ZM9.20744 27.2214V20.7198H19.274V27.2214H9.20744ZM20.6935 27.2214V20.7198H30.771V27.2214H20.6935Z" fill="#020202"/>
</g>
<defs>
<clipPath id="clip0_43_502">
<rect width="28" height="18.0418" fill="white" transform="translate(6 11)"/>
</clipPath>
</defs>
</svg>
