<svg width="24" height="24" viewBox="0 0 24 24" fill="none" xmlns="http://www.w3.org/2000/svg">
<g id="noun-time-period-5100841 1">
<g id="Group">
<path id="Vector" d="M19.6769 7.49714C19.9875 8.0351 19.8032 8.72313 19.2651 9.03392C18.7269 9.34449 18.0389 9.16027 17.7283 8.62212C17.4176 8.08396 17.602 7.39593 18.1399 7.08534C18.6781 6.77457 19.3661 6.95899 19.6769 7.49714Z" fill="#776EA5"/>
<path id="Vector_2" d="M20.8009 11.4378C20.6343 11.1505 20.3493 10.9516 20.0222 10.8941C19.6952 10.8367 19.3595 10.9267 19.105 11.1402C18.8506 11.3534 18.7032 11.6683 18.7026 12.0003C18.7026 13.7905 17.9914 15.5076 16.7256 16.7734C15.4598 18.0392 13.7427 18.7504 11.9525 18.7504C10.1623 18.7504 8.44521 18.0392 7.17939 16.7734C5.91357 15.5076 5.20239 13.7905 5.20239 12.0003C5.20239 10.21 5.91357 8.49296 7.17939 7.22714C8.44521 5.96133 10.1623 5.25014 11.9525 5.25014C12.1497 5.25152 12.3435 5.2009 12.515 5.10379C12.8061 4.93879 13.0086 4.65294 13.0676 4.32374C13.1269 3.99453 13.0363 3.6559 12.8208 3.40006C12.6052 3.14422 12.287 2.99767 11.9525 3.00003C9.56547 3.00003 7.27632 3.94822 5.58851 5.63603C3.90071 7.32403 2.95251 9.61323 2.95251 12C2.95251 14.3868 3.90071 16.6762 5.58851 18.364C7.27652 20.0518 9.56572 21 11.9525 21C14.3393 21 16.6287 20.0518 18.3165 18.364C20.0043 16.676 20.9525 14.3868 20.9525 12C20.9521 11.8025 20.8997 11.6084 20.8006 11.4375L20.8009 11.4378Z" fill="#776EA5"/>
<path id="Vector_3" d="M16.457 4.27466C16.9951 4.58542 17.1795 5.27348 16.8688 5.81164C16.5582 6.34959 15.8701 6.53402 15.332 6.22344C14.7938 5.91267 14.6096 5.22462 14.9202 4.68646C15.2309 4.1483 15.919 3.96408 16.457 4.27466Z" fill="#776EA5"/>
<path id="Vector_4" d="M11.3897 7.50018C11.0913 7.50018 10.8051 7.61888 10.5942 7.82978C10.3833 8.04068 10.2646 8.32693 10.2646 8.62534V11.4379C10.2646 12.0348 10.5018 12.607 10.9238 13.0289C11.3456 13.4509 11.9179 13.6881 12.5147 13.6881H14.7648C15.0632 13.6881 15.3493 13.5694 15.5604 13.3585C15.7713 13.1475 15.8898 12.8613 15.8898 12.5629C15.8898 12.2645 15.7713 11.9784 15.5604 11.7673C15.3493 11.5564 15.0632 11.4379 14.7648 11.4379H12.5147V8.62534C12.5147 8.32693 12.3962 8.04067 12.1853 7.82978C11.9742 7.61887 11.6881 7.50018 11.3897 7.50018Z" fill="#776EA5"/>
</g>
</g>
</svg>
