<svg width="19" height="14" viewBox="0 0 19 14" fill="none" xmlns="http://www.w3.org/2000/svg">
<g clip-path="url(#clip0_380_889)">
<path d="M15.2116 2.33334H3.26619C2.44494 2.33334 1.78048 2.85834 1.78048 3.50001L1.77301 10.5C1.77301 11.1417 2.44494 11.6667 3.26619 11.6667H15.2116C16.0329 11.6667 16.7048 11.1417 16.7048 10.5V3.50001C16.7048 2.85834 16.0329 2.33334 15.2116 2.33334ZM14.913 4.81251L9.63461 7.39084C9.3957 7.50751 9.08213 7.50751 8.84322 7.39084L3.56483 4.81251C3.37818 4.71918 3.26619 4.56168 3.26619 4.39251C3.26619 4.00168 3.8112 3.76834 4.23676 3.97251L9.23891 6.41668L14.2411 3.97251C14.6666 3.76834 15.2116 4.00168 15.2116 4.39251C15.2116 4.56168 15.0996 4.71918 14.913 4.81251Z" fill="#6D6A5D"/>
</g>
<defs>
<clipPath id="clip0_380_889">
<rect width="17.9182" height="14" fill="white" transform="translate(0.279846)"/>
</clipPath>
</defs>
</svg>
