<svg width="21" height="21" viewBox="0 0 21 21" fill="none" xmlns="http://www.w3.org/2000/svg">
<g id="magnifyingglass">
<g id="Group">
<path id="Vector" d="M0.571564 8.72992C0.571564 13.1496 4.16754 16.7455 8.58719 16.7455C10.3349 16.7455 11.932 16.1831 13.2479 15.2388L18.1899 20.1909C18.4209 20.4219 18.7222 20.5324 19.0437 20.5324C19.7267 20.5324 20.1988 20.0201 20.1988 19.3471C20.1988 19.0257 20.0782 18.7344 19.8673 18.5234L14.9555 13.5815C15.9901 12.2355 16.6028 10.5581 16.6028 8.72992C16.6028 4.31027 13.0068 0.714294 8.58719 0.714294C4.16754 0.714294 0.571564 4.31027 0.571564 8.72992ZM2.2892 8.72992C2.2892 5.25448 5.11175 2.43193 8.58719 2.43193C12.0626 2.43193 14.8852 5.25448 14.8852 8.72992C14.8852 12.2053 12.0626 15.0279 8.58719 15.0279C5.11175 15.0279 2.2892 12.2053 2.2892 8.72992Z" fill="white"/>
</g>
</g>
</svg>
