<svg width="21" height="15" viewBox="0 0 21 15" fill="none" xmlns="http://www.w3.org/2000/svg">
<g id="list.bullet">
<g id="Group">
<path id="Vector" d="M6.41965 2.37498H20.1407C20.5926 2.37498 20.9543 2.02342 20.9543 1.57141C20.9543 1.10936 20.5926 0.757795 20.1407 0.757795H6.41965C5.9576 0.757795 5.60603 1.10936 5.60603 1.57141C5.60603 2.02342 5.9576 2.37498 6.41965 2.37498ZM6.41965 8.45199H20.1407C20.5926 8.45199 20.9543 8.09039 20.9543 7.63837C20.9543 7.18637 20.5926 6.8348 20.1407 6.8348H6.41965C5.9576 6.8348 5.60603 7.18637 5.60603 7.63837C5.60603 8.09039 5.9576 8.45199 6.41965 8.45199ZM6.41965 14.519H20.1407C20.5926 14.519 20.9543 14.1674 20.9543 13.7154C20.9543 13.2533 20.5926 12.9018 20.1407 12.9018H6.41965C5.9576 12.9018 5.60603 13.2533 5.60603 13.7154C5.60603 14.1674 5.9576 14.519 6.41965 14.519ZM1.97992 2.82699C2.68305 2.82699 3.24554 2.26449 3.24554 1.57141C3.24554 0.868287 2.68305 0.305786 1.97992 0.305786C1.27679 0.305786 0.714294 0.868287 0.714294 1.57141C0.714294 2.26449 1.27679 2.82699 1.97992 2.82699ZM1.97992 8.90401C2.68305 8.90401 3.24554 8.3415 3.24554 7.63837C3.24554 6.93525 2.68305 6.37275 1.97992 6.37275C1.27679 6.37275 0.714294 6.93525 0.714294 7.63837C0.714294 8.3415 1.27679 8.90401 1.97992 8.90401ZM1.97992 14.981C2.68305 14.981 3.24554 14.4085 3.24554 13.7154C3.24554 13.0123 2.68305 12.4498 1.97992 12.4498C1.27679 12.4498 0.714294 13.0123 0.714294 13.7154C0.714294 14.4085 1.27679 14.981 1.97992 14.981Z" fill="white"/>
</g>
</g>
</svg>
