<svg width="22" height="22" viewBox="0 0 22 22" fill="none" xmlns="http://www.w3.org/2000/svg">
<g id="logout-2-svgrepo-com 1" clip-path="url(#clip0_380_1124)">
<path id="Vector" d="M7.77197 5.77002C7.78408 3.59499 7.88053 2.41708 8.64891 1.6487C9.52762 0.77002 10.9418 0.77002 13.7702 0.77002H14.7702C17.5986 0.77002 19.0129 0.77002 19.8915 1.6487C20.7702 2.52738 20.7702 3.94159 20.7702 6.77002V14.77C20.7702 17.5984 20.7702 19.0126 19.8915 19.8913C19.0129 20.77 17.5986 20.77 14.7702 20.77H13.7702C10.9418 20.77 9.52762 20.77 8.64891 19.8913C7.88053 19.1229 7.78408 17.945 7.77197 15.77" stroke="white" stroke-width="1.5" stroke-linecap="round"/>
<path id="Vector_2" d="M14.2745 10.7706H1.27454M1.27454 10.7706L4.77454 7.77057M1.27454 10.7706L4.77454 13.7706" stroke="white" stroke-width="1.5" stroke-linecap="round" stroke-linejoin="round"/>
</g>
<defs>
<clipPath id="clip0_380_1124">
<rect width="21.54" height="21.54" fill="white"/>
</clipPath>
</defs>
</svg>
