<svg width="57" height="56" viewBox="0 0 57 56" fill="none" xmlns="http://www.w3.org/2000/svg">
<g id="Patient">
<g id="Vector">
<path fill-rule="evenodd" clip-rule="evenodd" d="M28.5142 5C22.2867 5 17.2101 10.0641 17.2101 16.2858C17.2101 20.3036 19.3277 23.8428 22.5053 25.8457C15.0004 28.349 9.59999 35.4169 9.59999 43.7604V49.6422C9.59697 50.3892 10.2005 50.9973 10.9475 51H46.0794C46.8264 50.9974 47.4301 50.3893 47.427 49.6422V43.7604C47.427 35.4168 42.0268 28.3494 34.5216 25.8457C37.6992 23.8428 39.8168 20.3036 39.8168 16.2858C39.8168 10.0646 34.7406 5 28.5127 5H28.5142ZM28.5142 7.6978C33.2821 7.6978 37.1124 11.5288 37.1124 16.2853C37.1124 21.0418 33.2821 24.8755 28.5142 24.8755C23.7464 24.8755 19.9161 21.0418 19.9161 16.2853C19.9161 11.5287 23.7464 7.6978 28.5142 7.6978ZM28.5142 27.581C37.5196 27.581 44.7225 34.7722 44.7225 43.7603V48.2945L12.307 48.2941V43.7599C12.307 34.7722 19.5095 27.5806 28.5152 27.5806L28.5142 27.581ZM34.7263 34.7915C34.3673 34.7903 34.0227 34.9315 33.7683 35.184C33.5135 35.4369 33.3697 35.7805 33.3682 36.1394V38.7659L30.7417 38.7655C30.3812 38.7644 30.0347 38.9071 29.7799 39.1619C29.5247 39.417 29.382 39.7632 29.3835 40.1237C29.385 40.4826 29.5288 40.8262 29.7836 41.0791C30.0381 41.3316 30.3827 41.4728 30.7417 41.4713H33.3682V44.0977C33.3697 44.4567 33.5135 44.8002 33.7683 45.0531C34.0227 45.3056 34.3673 45.4468 34.7263 45.4453C35.4692 45.4427 36.0709 44.841 36.0738 44.0978V41.4713H38.7003C39.0593 41.4728 39.4039 41.3316 39.6584 41.0791C39.9132 40.8262 40.057 40.4827 40.0585 40.1237C40.06 39.7632 39.9173 39.4171 39.6621 39.1619C39.4073 38.9071 39.0608 38.7644 38.7003 38.7656H36.0738V36.1395C36.0708 35.3962 35.4691 34.7945 34.7263 34.7915Z" fill="#776EA5"/>
<path d="M34.7263 34.7918V34.7915M34.7263 34.7915C34.3673 34.7903 34.0227 34.9315 33.7683 35.184C33.5135 35.4369 33.3697 35.7805 33.3682 36.1394V38.7659L30.7417 38.7655C30.3812 38.7644 30.0347 38.9071 29.7799 39.1619C29.5247 39.417 29.382 39.7632 29.3835 40.1237C29.385 40.4826 29.5288 40.8262 29.7836 41.0791C30.0381 41.3316 30.3827 41.4728 30.7417 41.4713H33.3682V44.0977C33.3697 44.4567 33.5135 44.8002 33.7683 45.0531C34.0227 45.3057 34.3673 45.4468 34.7263 45.4453C35.4692 45.4427 36.0709 44.841 36.0738 44.0978V41.4713H38.7003C39.0593 41.4728 39.4039 41.3316 39.6584 41.0791C39.9132 40.8262 40.057 40.4827 40.0585 40.1237C40.06 39.7632 39.9173 39.4171 39.6621 39.1619C39.4073 38.9071 39.0608 38.7644 38.7003 38.7656H36.0738V36.1395C36.0708 35.3962 35.4691 34.7945 34.7263 34.7915ZM28.5142 5C22.2867 5 17.2101 10.0641 17.2101 16.2858C17.2101 20.3036 19.3277 23.8428 22.5053 25.8457C15.0004 28.349 9.59999 35.4169 9.59999 43.7605V49.6422C9.59697 50.3892 10.2005 50.9973 10.9475 51H46.0794C46.8264 50.9974 47.4301 50.3893 47.427 49.6422V43.7605C47.427 35.4168 42.0268 28.3494 34.5216 25.8457C37.6992 23.8428 39.8168 20.3036 39.8168 16.2858C39.8168 10.0646 34.7406 5 28.5127 5H28.5142ZM28.5142 7.6978C33.2821 7.6978 37.1124 11.5288 37.1124 16.2853C37.1124 21.0418 33.2821 24.8755 28.5142 24.8755C23.7464 24.8755 19.9161 21.0418 19.9161 16.2853C19.9161 11.5287 23.7464 7.6978 28.5142 7.6978ZM28.5142 27.581C37.5196 27.581 44.7225 34.7722 44.7225 43.7603V48.2945L12.307 48.2941V43.7599C12.307 34.7722 19.5095 27.5806 28.5152 27.5806L28.5142 27.581Z" stroke="#776EA5"/>
</g>
</g>
</svg>
