<svg width="24" height="24" viewBox="0 0 24 24" fill="none" xmlns="http://www.w3.org/2000/svg">
<path fill-rule="evenodd" clip-rule="evenodd" d="M12.1395 1.71429C9.4125 1.71429 7.18951 3.93182 7.18951 6.6562C7.18951 8.41555 8.11679 9.96531 9.50821 10.8424C6.22191 11.9386 3.85712 15.0335 3.85712 18.687V21.2626C3.8558 21.5897 4.1201 21.856 4.4472 21.8572H19.831C20.1581 21.856 20.4225 21.5897 20.4211 21.2626V18.687C20.4211 15.0334 18.0565 11.9387 14.77 10.8424C16.1614 9.96531 17.0887 8.41555 17.0887 6.6562C17.0887 3.93204 14.8659 1.71429 12.1388 1.71429H12.1395ZM12.1395 2.89563C14.2272 2.89563 15.9045 4.57318 15.9045 6.65599C15.9045 8.73883 14.2272 10.4175 12.1395 10.4175C10.0517 10.4175 8.37444 8.73883 8.37444 6.65599C8.37444 4.57314 10.0517 2.89563 12.1395 2.89563ZM12.1395 11.6022C16.0828 11.6022 19.2369 14.7512 19.2369 18.687V20.6724L5.04248 20.6723V18.6868C5.04248 14.7512 8.19638 11.6021 12.1399 11.6021L12.1395 11.6022ZM14.8596 14.7596C14.7024 14.7591 14.5515 14.8209 14.4401 14.9315C14.3286 15.0423 14.2656 15.1927 14.2649 15.3499V16.5L13.1148 16.4998C12.957 16.4993 12.8052 16.5618 12.6937 16.6734C12.5819 16.7851 12.5194 16.9367 12.5201 17.0945C12.5208 17.2517 12.5837 17.4021 12.6953 17.5129C12.8067 17.6235 12.9576 17.6853 13.1148 17.6846H14.2649V18.8347C14.2656 18.9919 14.3286 19.1423 14.4401 19.2531C14.5515 19.3637 14.7024 19.4255 14.8596 19.4248C15.1849 19.4237 15.4484 19.1602 15.4497 18.8347V17.6846H16.5998C16.757 17.6853 16.9079 17.6235 17.0193 17.5129C17.1309 17.4022 17.1939 17.2517 17.1945 17.0946C17.1952 16.9367 17.1327 16.7851 17.021 16.6734C16.9094 16.5618 16.7577 16.4993 16.5998 16.4998H15.4497V15.3499C15.4484 15.0244 15.1849 14.7609 14.8596 14.7596Z" fill="white"/>
</svg>
