<svg width="45" height="48" viewBox="0 0 45 48" fill="none" xmlns="http://www.w3.org/2000/svg">
<g id="Pending Tasks Icon 1" clip-path="url(#clip0_380_721)">
<g id="Group">
<path id="Vector" d="M15.9208 30.9919C15.393 30.9919 14.9684 30.4832 14.9684 29.8559C14.9684 29.2286 15.3968 28.7199 15.9208 28.7199H21.1341C21.6619 28.7199 22.0865 29.2286 22.0865 29.8559C22.0865 30.4832 21.6581 30.9919 21.1341 30.9919H15.9208ZM33.7638 26.2834C36.6937 26.2834 39.3443 27.4692 41.2644 29.3892C43.1845 31.3093 44.3702 33.96 44.3702 36.8898C44.3702 39.8197 43.1845 42.4703 41.2644 44.3904C39.3443 46.3105 36.6937 47.4962 33.7638 47.4962C30.834 47.4962 28.1834 46.3105 26.2633 44.3904C24.3432 42.4703 23.1575 39.8197 23.1575 36.8898C23.1575 33.96 24.3432 31.3093 26.2633 29.3892C28.1834 27.4692 30.834 26.2834 33.7638 26.2834ZM32.953 31.929C32.953 31.4049 33.3775 30.9804 33.9015 30.9804C34.4255 30.9804 34.8501 31.4049 34.8501 31.929V36.8707L38.5449 39.0585C38.9963 39.3224 39.1454 39.9038 38.8777 40.3551C38.6138 40.8065 38.0324 40.9557 37.5811 40.6879L33.4693 38.2515C33.1633 38.0946 32.953 37.7772 32.953 37.4062V31.929ZM39.9257 30.7318C38.3499 29.1559 36.1697 28.1806 33.7638 28.1806C31.358 28.1806 29.1778 29.1559 27.602 30.7318C26.0261 32.3076 25.0508 34.4878 25.0508 36.8936C25.0508 39.2995 26.0261 41.4797 27.602 43.0555C29.1778 44.6314 31.358 45.6067 33.7638 45.6067C36.1697 45.6067 38.3499 44.6314 39.9257 43.0555C41.5015 41.4797 42.4769 39.2995 42.4769 36.8936C42.4769 34.4878 41.5015 32.3076 39.9257 30.7318ZM17.8677 42.5506C18.495 42.5506 19.0037 43.0593 19.0037 43.6866C19.0037 44.3139 18.495 44.8226 17.8677 44.8226H3.64681C2.92008 44.8226 2.25838 44.5243 1.77645 44.0461C1.29834 43.568 1 42.9063 1 42.1796V3.14681C1 2.41626 1.29834 1.75838 1.77645 1.27645C2.25456 0.79834 2.91626 0.5 3.64681 0.5H36.12C36.8467 0.5 37.5084 0.79834 37.9903 1.27645C38.4684 1.75456 38.7668 2.41626 38.7668 3.14681V21.2308C38.7668 21.8581 38.2581 22.3668 37.6308 22.3668C37.0035 22.3668 36.4948 21.8581 36.4948 21.2308V3.14681C36.4948 3.04736 36.4527 2.95557 36.3839 2.88672C36.315 2.81787 36.2232 2.7758 36.1238 2.7758H3.64681C3.54736 2.7758 3.45174 2.81787 3.38672 2.88672C3.31405 2.95174 3.27197 3.04354 3.27197 3.14681V42.1796C3.27197 42.2791 3.31405 42.3747 3.38289 42.4397C3.45174 42.5085 3.54354 42.5506 3.64299 42.5506H17.8677ZM8.31315 28.2265H11.1627C11.3692 28.2265 11.5375 28.3948 11.5375 28.6013V31.4508C11.5375 31.6574 11.3692 31.8257 11.1627 31.8257H8.31315C8.10661 31.8257 7.93831 31.6574 7.93831 31.4508V28.6013C7.94214 28.391 8.11043 28.2265 8.31315 28.2265ZM8.31315 8.71965H11.1627C11.3692 8.71965 11.5375 8.88794 11.5375 9.09448V11.944C11.5375 12.1506 11.3692 12.3188 11.1627 12.3188H8.31315C8.10661 12.3188 7.93831 12.1506 7.93831 11.944V9.09448C7.94214 8.88794 8.11043 8.71965 8.31315 8.71965ZM15.9208 11.485C15.393 11.485 14.9684 10.9763 14.9684 10.349C14.9684 9.72176 15.3968 9.21305 15.9208 9.21305H29.4838C30.0116 9.21305 30.4362 9.72176 30.4362 10.349C30.4362 10.9763 30.0078 11.485 29.4838 11.485H15.9208ZM9.47974 21.9728C9.23495 22.1679 8.88306 22.1182 8.63444 21.8772C8.60767 21.8581 8.58089 21.8351 8.55412 21.8083L7.36076 20.5767C7.11214 20.3167 7.16952 19.8844 7.4908 19.6091C7.81209 19.3337 8.2749 19.3184 8.52734 19.5785L9.17757 20.2478L11.2698 18.5649C11.549 18.3392 11.9774 18.4386 12.2222 18.7829C12.467 19.1271 12.4364 19.5899 12.1571 19.8156L9.47974 21.9728ZM15.2935 21.0204C14.7657 21.0204 14.3411 20.5117 14.3411 19.8844C14.3411 19.2572 14.7695 18.7485 15.2935 18.7485H28.8565C29.3844 18.7485 29.8089 19.2572 29.8089 19.8844C29.8089 20.5117 29.3805 21.0204 28.8565 21.0204H15.2935Z" fill="#776EA5" stroke="#776EA5"/>
</g>
</g>
<defs>
<clipPath id="clip0_380_721">
<rect width="45" height="48" fill="white"/>
</clipPath>
</defs>
</svg>
