<svg width="19" height="14" viewBox="0 0 19 14" fill="none" xmlns="http://www.w3.org/2000/svg">
<g clip-path="url(#clip0_380_884)">
<path d="M14.6367 8.90166L12.7404 8.7325C12.285 8.69166 11.837 8.81416 11.516 9.065L10.1423 10.1383C8.02943 9.29833 6.29734 7.95083 5.22225 6.29416L6.60344 5.215C6.92447 4.96416 7.08126 4.61416 7.029 4.25833L6.81248 2.78833C6.72289 2.19916 6.08829 1.75583 5.32677 1.75583H4.03517C3.19152 1.75583 2.48973 2.30416 2.54199 2.96333C2.93768 7.945 8.03689 11.9233 14.4053 12.2325C15.249 12.2733 15.9507 11.725 15.9507 11.0658V10.0567C15.9582 9.4675 15.3908 8.97166 14.6367 8.90166Z" fill="#6D6A5D"/>
</g>
<defs>
<clipPath id="clip0_380_884">
<rect width="17.9182" height="14" fill="white" transform="translate(0.279846)"/>
</clipPath>
</defs>
</svg>
