<svg width="57" height="56" viewBox="0 0 57 56" fill="none" xmlns="http://www.w3.org/2000/svg">
<g id="noun-prescription-3102451 1">
<g id="Group">
<path id="Vector" d="M44.7438 3.50006H38.5216C37.9657 3.50006 37.4522 3.79659 37.1744 4.27784C36.8966 4.75909 36.8966 5.35215 37.1744 5.83339C37.4522 6.31464 37.9657 6.61117 38.5216 6.61117H43.1883V47.0556H12.0771V6.61117H16.7438C17.2997 6.61117 17.8132 6.31465 18.091 5.83339C18.3688 5.35214 18.3688 4.75908 18.091 4.27784C17.8132 3.79659 17.2997 3.50006 16.7438 3.50006H10.5216C10.1091 3.50006 9.71322 3.66395 9.42156 3.95562C9.1299 4.24728 8.966 4.64312 8.966 5.05562V48.6112C8.966 49.0237 9.1299 49.4195 9.42156 49.7112C9.71322 50.0028 10.1091 50.1667 10.5216 50.1667H44.7438C45.1563 50.1667 45.5522 50.0028 45.8438 49.7112C46.1355 49.4195 46.2994 49.0237 46.2994 48.6112V5.05562C46.2994 4.64312 46.1355 4.24728 45.8438 3.95562C45.5522 3.66395 45.1563 3.50006 44.7438 3.50006Z" fill="#776EA5"/>
<path id="Vector_2" d="M21.4093 12.8334H33.8537C34.2662 12.8334 34.6621 12.6695 34.9537 12.3778C35.2454 12.0862 35.4093 11.6903 35.4093 11.2778V5.05562C35.4093 4.64312 35.2454 4.24728 34.9537 3.95562C34.6621 3.66395 34.2662 3.50006 33.8537 3.50006H21.4093C20.9968 3.50006 20.6009 3.66395 20.3093 3.95562C20.0176 4.24728 19.8537 4.64312 19.8537 5.05562V11.2778C19.8537 11.6903 20.0176 12.0862 20.3093 12.3778C20.6009 12.6695 20.9968 12.8334 21.4093 12.8334ZM22.9648 6.61117H32.2982V9.72228H22.9648V6.61117Z" fill="#776EA5"/>
<path id="Vector_3" d="M21.4093 37.7224C21.8218 37.7224 22.2176 37.5585 22.5093 37.2669C22.8009 36.9752 22.9648 36.5794 22.9648 36.1669V30.5825L27.7714 35.3891L24.9714 38.1735C24.677 38.4655 24.5113 38.863 24.5113 39.278C24.5113 39.6929 24.677 40.0905 24.9714 40.3825C25.2634 40.677 25.661 40.8426 26.0759 40.8426C26.4909 40.8426 26.8884 40.677 27.1805 40.3825L29.9648 37.5825L32.7492 40.3825C33.0412 40.677 33.4388 40.8426 33.8537 40.8426C34.2687 40.8426 34.6662 40.677 34.9583 40.3825C35.2527 40.0905 35.4183 39.6929 35.4183 39.278C35.4183 38.863 35.2527 38.4655 34.9583 38.1735L32.1583 35.3891L34.9583 32.6047C35.3527 32.2099 35.5069 31.635 35.3624 31.096C35.218 30.5568 34.7971 30.1359 34.2579 29.9915C33.719 29.8471 33.144 30.0012 32.7492 30.3957L29.9648 33.1957L25.1582 28.3891H26.0759C28.2989 28.3891 30.353 27.203 31.4645 25.278C32.5759 23.353 32.5759 20.9807 31.4645 19.0558C30.353 17.1308 28.2989 15.9446 26.0759 15.9446H21.4093C20.9968 15.9446 20.6009 16.1085 20.3093 16.4002C20.0176 16.6919 19.8537 17.0877 19.8537 17.5002V36.1669C19.8537 36.5794 20.0176 36.9752 20.3093 37.2669C20.6009 37.5585 20.9968 37.7224 21.4093 37.7224ZM22.9648 19.0558H26.0759C27.1874 19.0558 28.2145 19.6488 28.7703 20.6113C29.3259 21.5738 29.3259 22.7599 28.7703 23.7224C28.2144 24.6849 27.1873 25.278 26.0759 25.278H22.9648V19.0558Z" fill="#776EA5"/>
</g>
</g>
</svg>
