<svg width="57" height="56" viewBox="0 0 57 56" fill="none" xmlns="http://www.w3.org/2000/svg">
<g id="Update Records">
<g id="Group">
<path id="Vector" d="M47.6744 28.257V10.4653C47.6744 9.67884 47.362 8.92461 46.8059 8.36851C46.2498 7.81241 45.4956 7.5 44.7091 7.5H25.4348C24.6483 7.5 23.8941 7.81241 23.338 8.36851C22.7819 8.92461 22.4695 9.67884 22.4695 10.4653V28.257" stroke="#776EA5" stroke-width="3" stroke-linecap="round" stroke-linejoin="round"/>
<path id="Vector_2" d="M9.12573 28.257V16.3958C9.12573 15.6094 9.43815 14.8552 9.99424 14.2991C10.5503 13.743 11.3046 13.4305 12.091 13.4305H16.5389" stroke="#776EA5" stroke-width="3" stroke-linecap="round" stroke-linejoin="round"/>
<path id="Vector_3" d="M34.3303 16.3959H41.7435" stroke="#776EA5" stroke-width="3" stroke-linecap="round" stroke-linejoin="round"/>
<path id="Vector_4" d="M28.3999 23.8091H41.7437" stroke="#776EA5" stroke-width="3" stroke-linecap="round" stroke-linejoin="round"/>
<path id="Vector_5" d="M49.1569 34.1678H34.3305C34.3305 35.7407 33.7057 37.2491 32.5935 38.3613C31.4813 39.4735 29.9728 40.0984 28.3999 40.0984C26.827 40.0984 25.3186 39.4735 24.2064 38.3613C23.0942 37.2491 22.4693 35.7407 22.4693 34.1678H7.64292C7.25129 34.1729 6.87714 34.3308 6.6002 34.6077C6.32325 34.8847 6.1654 35.2588 6.16028 35.6504V45.5347C6.16028 46.3212 6.47269 47.0754 7.02879 47.6315C7.58489 48.1876 8.33912 48.5 9.12556 48.5H47.6743C48.4607 48.5 49.2149 48.1876 49.771 47.6315C50.3271 47.0754 50.6395 46.3212 50.6395 45.5347V35.6504C50.6344 35.2588 50.4766 34.8847 50.1996 34.6077C49.9227 34.3308 49.5485 34.1729 49.1569 34.1678Z" stroke="#776EA5" stroke-width="3" stroke-linecap="round" stroke-linejoin="round"/>
</g>
</g>
</svg>
