<svg width="24" height="24" viewBox="0 0 24 24" fill="none" xmlns="http://www.w3.org/2000/svg">
<g clip-path="url(#clip0_380_1122)">
<path d="M15.4353 20.5547C16.7612 20.5547 17.846 19.4698 17.846 18.144C17.846 16.8181 16.7612 15.7333 15.4353 15.7333C14.1094 15.7333 13.0145 16.8181 13.0145 18.144C13.0145 19.4698 14.1094 20.5547 15.4353 20.5547ZM15.4353 19.3192C14.7724 19.3192 14.26 18.7969 14.26 18.144C14.26 17.471 14.7724 16.9688 15.4353 16.9688C16.0982 16.9688 16.6105 17.471 16.6105 18.144C16.6105 18.7969 16.0982 19.3192 15.4353 19.3192ZM13.8382 17.3304H2.51787C2.06586 17.3304 1.71429 17.6919 1.71429 18.144C1.71429 18.596 2.06586 18.9476 2.51787 18.9476H13.8382V17.3304ZM21.1808 17.3304H17.1831V18.9476H21.1808C21.5926 18.9476 21.9543 18.596 21.9543 18.144C21.9543 17.6919 21.5926 17.3304 21.1808 17.3304ZM8.34376 14.4274C9.66965 14.4274 10.7545 13.3326 10.7545 12.0067C10.7545 10.6808 9.66965 9.59599 8.34376 9.59599C7.01787 9.59599 5.93305 10.6808 5.93305 12.0067C5.93305 13.3326 7.01787 14.4274 8.34376 14.4274ZM8.34376 13.1819C7.69086 13.1819 7.16853 12.6596 7.16853 12.0067C7.16853 11.3438 7.69086 10.8315 8.34376 10.8315C9.0067 10.8315 9.51898 11.3438 9.51898 12.0067C9.51898 12.6596 9.0067 13.1819 8.34376 13.1819ZM2.47769 11.1931C2.06586 11.1931 1.71429 11.5547 1.71429 12.0067C1.71429 12.4588 2.06586 12.8103 2.47769 12.8103H6.61608V11.1931H2.47769ZM21.1407 11.1931H9.94086V12.8103H21.1407C21.5926 12.8103 21.9543 12.4588 21.9543 12.0067C21.9543 11.5547 21.5926 11.1931 21.1407 11.1931ZM15.4353 8.28015C16.7612 8.28015 17.846 7.19532 17.846 5.86943C17.846 4.54353 16.7612 3.44867 15.4353 3.44867C14.1094 3.44867 13.0145 4.54353 13.0145 5.86943C13.0145 7.19532 14.1094 8.28015 15.4353 8.28015ZM15.4353 7.04465C14.7724 7.04465 14.26 6.52233 14.26 5.85939C14.26 5.19644 14.7724 4.68416 15.4353 4.68416C16.0982 4.68416 16.6105 5.19644 16.6105 5.85939C16.6105 6.52233 16.0982 7.04465 15.4353 7.04465ZM13.8884 5.06586H2.51787C2.06586 5.06586 1.71429 5.41742 1.71429 5.86943C1.71429 6.32144 2.06586 6.68305 2.51787 6.68305H13.8884V5.06586ZM21.1808 5.06586H17.0424V6.68305H21.1808C21.5926 6.68305 21.9543 6.32144 21.9543 5.86943C21.9543 5.41742 21.5926 5.06586 21.1808 5.06586Z" fill="white"/>
</g>
<defs>
<clipPath id="clip0_380_1122">
<rect width="20.24" height="17.1261" fill="white" transform="translate(1.71429 3.42859)"/>
</clipPath>
</defs>
</svg>
