<svg width="21" height="18" viewBox="0 0 21 18" fill="none" xmlns="http://www.w3.org/2000/svg">
<g id="slider.horizontal.3" clip-path="url(#clip0_405_37)">
<g id="Group">
<path id="Vector" d="M14.4353 17.5547C15.7612 17.5547 16.846 16.4698 16.846 15.144C16.846 13.8181 15.7612 12.7333 14.4353 12.7333C13.1094 12.7333 12.0145 13.8181 12.0145 15.144C12.0145 16.4698 13.1094 17.5547 14.4353 17.5547ZM14.4353 16.3192C13.7724 16.3192 13.26 15.7969 13.26 15.144C13.26 14.471 13.7724 13.9688 14.4353 13.9688C15.0982 13.9688 15.6105 14.471 15.6105 15.144C15.6105 15.7969 15.0982 16.3192 14.4353 16.3192ZM12.8382 14.3304H1.51787C1.06586 14.3304 0.714294 14.6919 0.714294 15.144C0.714294 15.596 1.06586 15.9476 1.51787 15.9476H12.8382V14.3304ZM20.1808 14.3304H16.1831V15.9476H20.1808C20.5926 15.9476 20.9543 15.596 20.9543 15.144C20.9543 14.6919 20.5926 14.3304 20.1808 14.3304ZM7.34376 11.4274C8.66965 11.4274 9.75449 10.3326 9.75449 9.00669C9.75449 7.68081 8.66965 6.59599 7.34376 6.59599C6.01787 6.59599 4.93305 7.68081 4.93305 9.00669C4.93305 10.3326 6.01787 11.4274 7.34376 11.4274ZM7.34376 10.1819C6.69086 10.1819 6.16853 9.65958 6.16853 9.00669C6.16853 8.34376 6.69086 7.83148 7.34376 7.83148C8.0067 7.83148 8.51898 8.34376 8.51898 9.00669C8.51898 9.65958 8.0067 10.1819 7.34376 10.1819ZM1.47769 8.19309C1.06586 8.19309 0.714294 8.5547 0.714294 9.00669C0.714294 9.45875 1.06586 9.81027 1.47769 9.81027H5.61608V8.19309H1.47769ZM20.1407 8.19309H8.94086V9.81027H20.1407C20.5926 9.81027 20.9543 9.45875 20.9543 9.00669C20.9543 8.5547 20.5926 8.19309 20.1407 8.19309ZM14.4353 5.28015C15.7612 5.28015 16.846 4.19532 16.846 2.86943C16.846 1.54353 15.7612 0.448669 14.4353 0.448669C13.1094 0.448669 12.0145 1.54353 12.0145 2.86943C12.0145 4.19532 13.1094 5.28015 14.4353 5.28015ZM14.4353 4.04465C13.7724 4.04465 13.26 3.52233 13.26 2.85939C13.26 2.19644 13.7724 1.68416 14.4353 1.68416C15.0982 1.68416 15.6105 2.19644 15.6105 2.85939C15.6105 3.52233 15.0982 4.04465 14.4353 4.04465ZM12.8884 2.06586H1.51787C1.06586 2.06586 0.714294 2.41742 0.714294 2.86943C0.714294 3.32144 1.06586 3.68305 1.51787 3.68305H12.8884V2.06586ZM20.1808 2.06586H16.0424V3.68305H20.1808C20.5926 3.68305 20.9543 3.32144 20.9543 2.86943C20.9543 2.41742 20.5926 2.06586 20.1808 2.06586Z" fill="white"/>
</g>
</g>
<defs>
<clipPath id="clip0_405_37">
<rect width="20.24" height="17.1261" fill="white" transform="translate(0.714294 0.428589)"/>
</clipPath>
</defs>
</svg>
