<svg width="24" height="24" viewBox="0 0 24 24" fill="none" xmlns="http://www.w3.org/2000/svg">
<path d="M7.41965 6.37498H21.1407C21.5926 6.37498 21.9543 6.02342 21.9543 5.57141C21.9543 5.10936 21.5926 4.75779 21.1407 4.75779H7.41965C6.9576 4.75779 6.60603 5.10936 6.60603 5.57141C6.60603 6.02342 6.9576 6.37498 7.41965 6.37498ZM7.41965 12.452H21.1407C21.5926 12.452 21.9543 12.0904 21.9543 11.6384C21.9543 11.1864 21.5926 10.8348 21.1407 10.8348H7.41965C6.9576 10.8348 6.60603 11.1864 6.60603 11.6384C6.60603 12.0904 6.9576 12.452 7.41965 12.452ZM7.41965 18.519H21.1407C21.5926 18.519 21.9543 18.1674 21.9543 17.7154C21.9543 17.2533 21.5926 16.9018 21.1407 16.9018H7.41965C6.9576 16.9018 6.60603 17.2533 6.60603 17.7154C6.60603 18.1674 6.9576 18.519 7.41965 18.519ZM2.97992 6.82699C3.68305 6.82699 4.24554 6.26449 4.24554 5.57141C4.24554 4.86829 3.68305 4.30579 2.97992 4.30579C2.27679 4.30579 1.71429 4.86829 1.71429 5.57141C1.71429 6.26449 2.27679 6.82699 2.97992 6.82699ZM2.97992 12.904C3.68305 12.904 4.24554 12.3415 4.24554 11.6384C4.24554 10.9352 3.68305 10.3727 2.97992 10.3727C2.27679 10.3727 1.71429 10.9352 1.71429 11.6384C1.71429 12.3415 2.27679 12.904 2.97992 12.904ZM2.97992 18.981C3.68305 18.981 4.24554 18.4085 4.24554 17.7154C4.24554 17.0123 3.68305 16.4498 2.97992 16.4498C2.27679 16.4498 1.71429 17.0123 1.71429 17.7154C1.71429 18.4085 2.27679 18.981 2.97992 18.981Z" fill="white"/>
</svg>
