<svg width="40" height="40" viewBox="0 0 40 40" fill="none" xmlns="http://www.w3.org/2000/svg">
<g clip-path="url(#clip0_43_533)">
<path d="M15.4719 31C15.961 31 16.3003 30.7396 16.9092 30.1989L20.353 27.1247H26.7613C29.7359 27.1247 31.333 25.4724 31.333 22.5385V14.868C31.333 11.934 29.7359 10.2817 26.7613 10.2817H13.9047C10.9301 10.2817 9.33301 11.924 9.33301 14.868V22.5385C9.33301 25.4825 10.9301 27.1247 13.9047 27.1247H14.3838V29.7282C14.3838 30.4993 14.7731 31 15.4719 31ZM15.8811 29.1675V26.2635C15.8811 25.7228 15.6715 25.5125 15.1325 25.5125H13.9047C11.8884 25.5125 10.9401 24.4811 10.9401 22.5284V14.868C10.9401 12.9153 11.8884 11.8939 13.9047 11.8939H26.7613C28.7677 11.8939 29.7259 12.9153 29.7259 14.868V22.5284C29.7259 24.4811 28.7677 25.5125 26.7613 25.5125H20.2931C19.7341 25.5125 19.4546 25.5926 19.0753 25.9831L15.8811 29.1675ZM15.1924 15.9394H25.3539C25.6733 15.9394 25.9229 15.6891 25.9229 15.3587C25.9229 15.0482 25.6733 14.7879 25.3539 14.7879H15.1924C14.8729 14.7879 14.6134 15.0482 14.6134 15.3587C14.6134 15.6891 14.8729 15.9394 15.1924 15.9394ZM15.1924 19.2039H25.3539C25.6733 19.2039 25.9229 18.9435 25.9229 18.6131C25.9229 18.3027 25.6733 18.0423 25.3539 18.0423H15.1924C14.8729 18.0423 14.6134 18.3027 14.6134 18.6131C14.6134 18.9435 14.8729 19.2039 15.1924 19.2039ZM15.1924 22.4583H21.8003C22.1198 22.4583 22.3693 22.208 22.3693 21.8875C22.3693 21.5571 22.1198 21.2967 21.8003 21.2967H15.1924C14.8729 21.2967 14.6134 21.5571 14.6134 21.8875C14.6134 22.208 14.8729 22.4583 15.1924 22.4583Z" fill="black" fill-opacity="0.5"/>
</g>
<defs>
<clipPath id="clip0_43_533">
<rect width="22" height="22" fill="white" transform="translate(9.33301 9)"/>
</clipPath>
</defs>
</svg>
