<svg width="24" height="15" viewBox="0 0 24 15" fill="none" xmlns="http://www.w3.org/2000/svg">
<g id="window.horizontal.closed" clip-path="url(#clip0_405_45)">
<g id="Group">
<path id="Vector" d="M0.979553 14.2564C0.979553 14.6524 1.30672 14.971 1.69416 14.971H22.5124C22.9085 14.971 23.227 14.6524 23.227 14.2564C23.227 13.8604 22.9085 13.5418 22.5124 13.5418H22.0475V1.93592C22.0475 1.16966 21.5223 0.653076 20.7216 0.653076H3.45915C2.66706 0.653076 2.13325 1.16966 2.13325 1.93592V13.5418H1.69416C1.30672 13.5418 0.979553 13.8604 0.979553 14.2564ZM3.52802 7.2481V2.28031C3.52802 2.14255 3.61412 2.03924 3.74327 2.03924H11.5265V7.2481H3.52802ZM12.6543 7.2481V2.03924H20.4461C20.5752 2.03924 20.6613 2.14255 20.6613 2.28031V7.2481H12.6543ZM3.52802 13.5418V8.37596H11.5265V13.5418H3.52802ZM12.6543 13.5418V8.37596H20.6613V13.5418H12.6543Z" fill="white"/>
</g>
</g>
<defs>
<clipPath id="clip0_405_45">
<rect width="22.2474" height="14.3351" fill="white" transform="translate(0.979553 0.653076)"/>
</clipPath>
</defs>
</svg>
